<svg xmlns="http://www.w3.org/2000/svg" width="128" height="128" viewBox="0 0 128 128">
  <!-- 主背景 -->
  <rect width="128" height="128" rx="24" fill="#24292f"/>
  
  <!-- GitHub logo区域 -->
  <g transform="translate(32, 24)">
    <!-- 简化的GitHub标志 -->
    <circle cx="32" cy="16" r="14" fill="#f6f8fa"/>
    <path d="M 32 2 C 24.3 2 18 8.3 18 16 C 18 22.1 21.8 27.3 27.2 29.2 C 28 29.4 28.3 28.9 28.3 28.5 C 28.3 28.1 28.3 27.1 28.3 25.8 C 24.9 26.6 24 24.5 24 24.5 C 23.3 22.8 22.3 22.4 22.3 22.4 C 20.9 21.5 22.4 21.5 22.4 21.5 C 24 21.6 24.8 23 24.8 23 C 26.2 25.2 28.5 24.5 28.4 24.1 C 28.5 23.1 28.9 22.4 29.3 22 C 26.8 21.6 24.2 20.6 24.2 16.4 C 24.2 15 24.7 13.8 25.8 12.9 C 25.7 12.5 25.2 11.2 25.9 9.4 C 25.9 9.4 27.2 9 28.3 9.8 C 29.5 9.5 30.7 9.3 32 9.3 C 33.3 9.3 34.5 9.5 35.7 9.8 C 36.8 9 38.1 9.4 38.1 9.4 C 38.8 11.2 38.3 12.5 38.2 12.9 C 39.3 13.8 39.8 15 39.8 16.4 C 39.8 20.6 37.2 21.6 34.7 22 C 35.1 22.4 35.5 23.1 35.5 24.1 C 35.5 25.6 35.5 26.8 35.5 27.2 C 35.5 27.6 35.8 28.1 36.6 27.9 C 42 26 45.8 20.8 45.8 14.7 C 46 8.3 39.7 2 32 2 Z" fill="#24292f"/>
  </g>
  
  <!-- 文件夹 + 下载箭头组合 -->
  <g transform="translate(24, 52)">
    <!-- 文件夹 -->
    <rect x="0" y="12" width="48" height="32" rx="4" fill="#ffd33d" stroke="#e1a903" stroke-width="2"/>
    <rect x="0" y="8" width="16" height="8" rx="2" fill="#ffd33d" stroke="#e1a903" stroke-width="2"/>
    
    <!-- 文件夹内容 -->
    <rect x="6" y="18" width="8" height="12" rx="1" fill="#f6f8fa" opacity="0.9"/>
    <rect x="18" y="18" width="8" height="12" rx="1" fill="#f6f8fa" opacity="0.9"/>
    <rect x="30" y="18" width="8" height="12" rx="1" fill="#f6f8fa" opacity="0.9"/>
    
    <!-- 下载箭头 -->
    <g transform="translate(56, 20)">
      <!-- 箭头主体 -->
      <rect x="-3" y="0" width="6" height="20" fill="#1f883d" rx="3"/>
      <!-- 箭头尖端 -->
      <path d="M -10 16 L 0 26 L 10 16 Z" fill="#1f883d"/>
    </g>
  </g>
  
  <!-- ZIP标识 -->
  <g transform="translate(64, 96)">
    <rect x="-20" y="-8" width="40" height="16" rx="8" fill="#0969da"/>
    <text x="0" y="2" font-family="Arial, sans-serif" font-size="12" font-weight="bold" text-anchor="middle" fill="white">ZIP</text>
  </g>
  
  <!-- 装饰性点缀 -->
  <g opacity="0.4">
    <!-- 左侧装饰 -->
    <circle cx="16" cy="80" r="3" fill="#1f883d"/>
    <circle cx="12" cy="68" r="2" fill="#0969da"/>
    <circle cx="20" cy="72" r="2" fill="#ffd33d"/>
    
    <!-- 右侧装饰 -->
    <circle cx="112" cy="80" r="3" fill="#1f883d"/>
    <circle cx="116" cy="68" r="2" fill="#0969da"/>
    <circle cx="108" cy="72" r="2" fill="#ffd33d"/>
  </g>
</svg>